<?xml version="1.0" standalone="no"?>
<!DOCTYPE svg PUBLIC "-//W3C//DTD SVG 20010904//EN"
 "http://www.w3.org/TR/2001/REC-SVG-20010904/DTD/svg10.dtd">
<svg version="1.0" xmlns="http://www.w3.org/2000/svg"
 width="1080.000000pt" height="1080.000000pt" viewBox="0 0 1080.000000 1080.000000"
 preserveAspectRatio="xMidYMid meet">
<metadata>
Created by potrace 1.16, written by Peter Selinger 2001-2019
</metadata>
<g transform="translate(0.000000,1080.000000) scale(0.100000,-0.100000)"
fill="#000000" stroke="none">
<path d="M765 10789 c-254 -37 -464 -151 -587 -317 -82 -111 -146 -282 -168
-452 -13 -104 -13 -9150 0 -9245 64 -450 311 -696 767 -764 51 -8 1416 -11
4625 -11 5002 0 4648 -4 4840 60 282 94 450 288 531 610 l22 85 3 4590 c2
3190 -1 4615 -8 4672 -16 123 -46 228 -95 328 -112 230 -286 359 -585 431 -72
18 -267 19 -4680 20 -2589 1 -4631 -2 -4665 -7z m5035 -1633 c720 -100 1295
-333 1852 -753 642 -484 1138 -1217 1348 -1993 17 -63 34 -126 38 -140 6 -21
14 -25 62 -27 227 -12 407 -90 561 -243 354 -351 325 -934 -63 -1244 -135
-108 -291 -171 -458 -184 l-94 -7 -27 -106 c-204 -804 -677 -1524 -1344 -2046
-331 -258 -742 -476 -1150 -608 -220 -72 -429 -120 -685 -157 -136 -20 -194
-23 -480 -23 -285 1 -345 3 -490 24 -322 45 -605 117 -885 226 -757 295 -1390
816 -1831 1507 -196 309 -380 734 -460 1063 -29 120 -31 123 -77 130 -222 35
-415 146 -551 316 -54 69 -121 204 -148 300 -33 120 -33 319 1 434 94 322 337
544 660 604 75 14 85 19 92 41 4 14 22 77 39 140 232 845 764 1594 1495 2101
409 284 900 493 1398 594 114 23 366 60 472 69 129 10 604 -2 725 -18z"/>
<path d="M5150 9043 c-536 -38 -1017 -171 -1469 -404 -64 -33 -123 -64 -131
-69 -8 -5 -51 -31 -95 -57 -228 -135 -467 -324 -685 -543 -438 -438 -745 -958
-919 -1554 -23 -76 -41 -147 -41 -157 0 -14 15 -20 73 -29 140 -24 299 -102
414 -204 104 -93 204 -261 245 -411 75 -276 -12 -593 -220 -798 -77 -77 -127
-114 -222 -162 -62 -31 -198 -75 -232 -75 -9 0 -28 -4 -41 -9 -25 -10 -25 -10
-11 -69 23 -97 100 -329 160 -478 78 -195 207 -443 323 -619 243 -371 581
-722 941 -977 514 -364 1073 -577 1720 -655 198 -24 590 -24 790 0 479 58 880
180 1295 396 157 82 165 86 322 190 617 404 1106 1006 1378 1696 91 230 175
510 158 525 -5 4 -30 13 -58 20 -236 61 -450 252 -551 492 -34 80 -64 227 -64
313 0 87 29 229 64 314 98 240 314 432 556 496 56 14 59 28 30 133 -77 272
-155 472 -278 712 -84 163 -81 158 -159 282 -272 431 -617 788 -1033 1070
-416 282 -881 476 -1361 567 -296 57 -652 82 -899 64z m530 -1833 c268 -50
548 -172 766 -333 93 -69 308 -284 377 -379 151 -207 264 -457 321 -713 46
-208 47 -537 2 -748 -96 -447 -346 -838 -708 -1105 -625 -462 -1459 -481
-2110 -49 -273 182 -482 422 -628 722 -129 264 -183 497 -184 795 -1 310 60
566 200 843 272 538 808 910 1420 987 121 15 415 4 544 -20z"/>
</g>
</svg>
