<svg id="svg" version="1.1" xmlns="http://www.w3.org/2000/svg" xmlns:xlink="http://www.w3.org/1999/xlink" width="400" height="400" viewBox="0, 0, 400,400"><g id="svgg"><path id="path0" d="M184.444 60.941 C 175.176 61.948,170.863 62.717,162.963 64.772 C 124.843 74.689,92.837 100.122,74.352 135.185 C 69.504 144.381,63.384 160.617,62.376 166.958 C 62.100 168.689,61.442 169.259,59.719 169.259 C 56.833 169.259,50.307 171.846,46.381 174.547 C 31.100 185.059,28.770 206.947,41.453 220.825 C 43.079 222.604,49.509 227.407,50.264 227.407 C 50.397 227.407,51.184 227.727,52.013 228.117 C 53.929 229.020,58.932 230.370,60.361 230.370 C 61.592 230.370,61.990 230.916,62.390 233.148 C 63.054 236.854,67.629 250.826,69.424 254.630 C 72.905 262.005,75.215 266.626,76.729 269.245 C 92.094 295.816,115.349 316.603,142.976 328.461 C 144.089 328.939,145.583 329.583,146.296 329.892 C 147.009 330.202,148.259 330.676,149.074 330.946 C 149.889 331.216,151.806 331.873,153.333 332.407 C 184.738 343.372,223.923 341.908,253.223 328.675 C 295.518 309.574,325.174 274.271,334.588 231.815 C 334.789 230.905,334.960 230.839,337.678 230.623 C 363.857 228.546,376.212 198.183,358.689 178.984 C 353.427 173.218,346.869 170.001,338.574 169.114 L 334.741 168.704 333.526 164.074 C 325.055 131.808,304.597 103.095,276.473 84.003 C 273.835 82.212,272.026 81.094,267.407 78.403 C 243.350 64.380,212.515 57.889,184.444 60.941 M217.508 66.081 C 220.925 66.611,224.425 67.208,225.286 67.408 C 230.469 68.614,236.316 70.103,237.593 70.542 C 238.407 70.822,239.991 71.330,241.111 71.670 C 243.383 72.360,253.004 76.106,254.444 76.862 C 254.954 77.130,256.943 78.125,258.866 79.073 C 286.785 92.851,309.509 116.722,322.285 145.690 C 325.610 153.230,329.924 166.325,329.991 169.079 C 329.996 169.285,328.875 169.769,327.500 170.155 C 308.514 175.480,299.401 197.696,309.136 214.925 C 313.088 221.919,320.839 227.954,327.778 229.440 C 330.564 230.036,330.564 230.055,327.820 239.444 C 317.293 275.471,288.020 308.707,253.889 323.386 C 252.463 323.999,250.796 324.721,250.185 324.989 C 227.964 334.760,196.188 337.890,171.852 332.707 C 164.459 331.132,154.266 328.206,150.185 326.488 C 149.574 326.230,147.824 325.513,146.296 324.894 C 116.557 312.845,90.134 287.867,76.472 258.889 C 75.752 257.361,75.007 255.831,74.817 255.490 C 74.627 255.148,73.873 253.315,73.141 251.416 C 72.409 249.517,71.584 247.463,71.309 246.852 C 70.691 245.480,68.029 236.951,67.219 233.750 C 66.554 231.117,66.669 230.370,67.743 230.370 C 69.112 230.370,74.256 228.977,76.377 228.032 C 100.286 217.379,101.140 183.784,77.797 172.203 C 75.004 170.817,69.973 169.259,68.290 169.259 C 66.247 169.259,66.421 167.908,69.770 157.762 C 71.296 153.139,71.730 151.955,73.561 147.407 C 81.994 126.467,101.124 102.584,119.630 89.894 C 127.170 84.723,131.365 82.240,138.889 78.494 C 143.943 75.978,145.473 75.342,154.444 72.030 C 171.968 65.562,198.208 63.086,217.508 66.081 M194.259 132.099 C 193.648 132.174,191.148 132.491,188.704 132.803 C 158.890 136.613,134.571 161.150,130.913 191.111 C 130.055 198.140,130.406 208.614,131.651 213.148 C 131.931 214.167,132.359 215.990,132.602 217.200 C 132.846 218.410,133.179 219.660,133.342 219.978 C 133.506 220.296,134.010 221.639,134.462 222.963 C 134.914 224.287,135.740 226.370,136.298 227.593 C 136.857 228.815,137.426 230.065,137.563 230.370 C 137.701 230.676,138.213 231.593,138.702 232.407 C 139.190 233.222,139.849 234.389,140.166 235.000 C 144.034 242.467,156.298 254.320,164.709 258.723 C 165.684 259.233,166.731 259.802,167.037 259.988 C 177.876 266.570,198.226 269.188,212.778 265.873 C 267.606 253.380,284.376 184.017,241.361 147.648 C 229.142 137.318,208.166 130.393,194.259 132.099 " stroke="none" fill="#e5dffa" fill-rule="evenodd"></path><path id="path1" d="M28.341 0.411 C 12.047 2.796,2.500 12.521,0.382 28.889 C -0.117 32.748,-0.116 367.785,0.383 371.296 C 2.752 387.956,11.889 397.064,28.775 399.600 C 33.397 400.294,367.702 400.147,372.335 399.448 C 386.829 397.264,395.421 389.447,399.005 375.185 L 399.797 372.037 399.911 202.037 C 399.991 83.891,399.906 31.116,399.633 29.016 C 397.610 13.433,389.672 4.565,374.444 0.876 C 371.381 0.133,33.339 -0.320,28.341 0.411 M215.000 60.716 C 216.222 60.918,218.806 61.322,220.741 61.613 C 224.153 62.126,232.003 63.773,234.259 64.449 C 234.870 64.632,236.870 65.217,238.704 65.751 C 275.535 76.461,308.948 105.057,324.810 139.444 C 325.656 141.278,326.482 143.034,326.646 143.346 C 326.810 143.659,327.708 145.825,328.641 148.161 C 330.812 153.591,331.618 156.053,334.607 166.389 L 335.223 168.519 337.334 168.519 C 339.384 168.519,346.359 169.996,347.678 170.710 C 348.039 170.904,348.833 171.297,349.444 171.582 C 355.417 174.371,360.297 179.160,364.032 185.896 C 367.381 191.936,368.059 202.975,365.511 210.000 C 361.042 222.328,349.029 231.099,336.600 231.110 C 335.158 231.111,334.859 231.660,333.876 236.111 C 333.410 238.220,330.557 247.050,329.329 250.185 C 316.144 283.838,292.206 310.017,260.150 325.836 C 250.919 330.391,237.123 335.311,229.886 336.628 C 228.703 336.844,227.591 337.109,227.416 337.217 C 227.132 337.393,223.387 338.029,214.815 339.360 C 211.011 339.950,185.154 339.952,181.667 339.363 C 180.241 339.122,176.936 338.584,174.322 338.169 C 171.708 337.754,169.426 337.325,169.251 337.217 C 169.075 337.109,167.964 336.844,166.781 336.628 C 165.598 336.413,162.713 335.674,160.370 334.987 C 150.882 332.203,146.884 330.719,139.326 327.174 C 137.428 326.284,135.797 325.556,135.702 325.556 C 135.607 325.556,134.244 324.830,132.672 323.943 C 131.101 323.057,129.033 321.899,128.077 321.370 C 122.690 318.391,112.036 310.977,108.480 307.732 C 107.949 307.248,105.755 305.292,103.605 303.385 C 94.260 295.099,83.654 282.027,77.420 271.111 C 76.548 269.583,75.499 267.750,75.089 267.037 C 73.826 264.838,71.259 259.584,70.023 256.667 C 69.375 255.139,68.696 253.556,68.513 253.148 C 67.572 251.047,66.283 247.625,65.375 244.815 C 64.816 243.083,64.059 240.750,63.694 239.630 C 63.329 238.509,62.919 237.003,62.785 236.283 C 62.650 235.562,62.244 234.065,61.882 232.955 L 61.224 230.936 58.482 230.478 C 46.135 228.414,35.284 217.610,33.318 205.425 C 30.548 188.252,40.801 173.033,57.710 169.220 C 61.964 168.261,61.533 168.732,62.787 163.663 C 65.012 154.666,71.661 138.483,76.315 130.741 C 76.989 129.620,78.294 127.454,79.216 125.926 C 92.079 104.607,115.551 83.554,137.407 73.731 C 138.935 73.045,140.352 72.360,140.556 72.211 C 141.240 71.708,150.148 68.237,154.259 66.870 C 162.972 63.974,176.594 61.098,185.185 60.342 C 189.418 59.969,212.211 60.255,215.000 60.716 M189.630 65.436 C 173.015 66.645,157.547 70.379,144.541 76.320 C 143.678 76.714,142.873 77.037,142.753 77.037 C 141.799 77.037,130.405 83.256,125.185 86.625 C 110.016 96.418,95.096 111.127,85.884 125.370 C 84.962 126.796,83.562 128.963,82.774 130.185 C 81.351 132.393,75.545 143.647,74.367 146.481 C 71.659 152.998,67.037 166.761,67.037 168.308 C 67.037 168.378,68.662 168.814,70.648 169.278 C 78.761 171.172,87.148 176.978,90.437 182.977 C 92.576 186.878,92.986 187.781,93.962 190.741 C 99.565 207.732,87.403 227.707,69.788 230.446 C 67.650 230.778,67.037 231.010,67.037 231.486 C 67.037 232.593,71.299 246.223,72.439 248.760 C 72.727 249.402,72.963 250.037,72.963 250.172 C 72.963 250.387,73.670 252.031,75.360 255.741 C 84.411 275.613,97.734 292.453,115.740 306.777 C 121.220 311.136,131.843 317.787,138.148 320.806 C 144.248 323.727,149.357 325.909,151.481 326.500 C 151.991 326.641,152.574 326.886,152.778 327.044 C 152.981 327.201,153.731 327.495,154.444 327.696 C 155.157 327.897,157.741 328.649,160.185 329.366 C 189.631 338.006,218.912 336.540,249.444 324.896 C 254.032 323.146,265.387 317.436,267.352 315.890 C 267.845 315.502,268.375 315.185,268.529 315.185 C 268.782 315.185,272.154 312.977,276.667 309.856 C 284.285 304.588,295.223 294.547,301.526 287.037 C 314.492 271.587,323.510 254.167,328.891 234.175 L 329.911 230.387 328.567 230.138 C 326.866 229.824,322.866 228.332,321.555 227.524 C 312.924 222.203,308.812 217.242,306.000 208.755 C 300.899 193.356,311.982 172.880,327.069 169.830 C 329.620 169.314,329.716 169.250,329.506 168.204 C 327.408 157.717,319.878 139.540,313.527 129.630 C 303.228 113.559,290.197 99.529,277.214 90.532 C 276.608 90.111,275.028 89.018,273.704 88.103 C 250.387 71.990,218.329 63.347,189.630 65.436 M207.047 132.225 C 211.540 132.760,219.796 134.887,222.778 136.278 C 223.185 136.468,224.708 137.131,226.161 137.751 C 240.115 143.705,253.388 156.753,259.718 170.741 C 262.016 175.819,262.334 176.696,264.226 183.148 C 266.755 191.779,266.760 208.046,264.236 216.389 C 263.943 217.356,263.438 219.023,263.113 220.093 C 257.315 239.167,239.562 258.204,222.963 263.148 C 222.454 263.300,221.861 263.564,221.645 263.735 C 221.268 264.035,218.899 264.750,215.000 265.740 C 197.763 270.120,179.265 267.554,163.704 258.625 C 152.323 252.094,140.435 239.029,136.310 228.519 C 136.031 227.806,135.676 227.054,135.523 226.849 C 134.702 225.752,132.384 218.404,131.200 213.148 C 129.769 206.794,129.704 193.204,131.073 186.852 C 135.674 165.510,148.103 149.027,167.074 139.107 C 170.202 137.472,170.891 137.185,176.111 135.336 C 184.926 132.214,196.865 131.014,207.047 132.225 " stroke="none" fill="#1c244c" fill-rule="evenodd"></path><path id="path2" d="M207.130 60.255 C 207.486 60.348,208.069 60.348,208.426 60.255 C 208.782 60.162,208.491 60.086,207.778 60.086 C 207.065 60.086,206.773 60.162,207.130 60.255 M180.463 60.996 C 180.819 61.089,181.403 61.089,181.759 60.996 C 182.116 60.903,181.824 60.827,181.111 60.827 C 180.398 60.827,180.106 60.903,180.463 60.996 M214.727 61.003 C 215.187 61.091,215.854 61.088,216.208 60.995 C 216.562 60.903,216.185 60.830,215.370 60.834 C 214.556 60.838,214.266 60.914,214.727 61.003 M195.093 65.090 C 196.773 65.159,199.523 65.159,201.204 65.090 C 202.884 65.022,201.509 64.966,198.148 64.966 C 194.787 64.966,193.412 65.022,195.093 65.090 M188.062 65.454 C 188.728 65.536,189.728 65.534,190.284 65.450 C 190.841 65.365,190.296 65.298,189.074 65.300 C 187.852 65.302,187.397 65.371,188.062 65.454 M206.574 65.453 C 207.236 65.535,208.319 65.535,208.981 65.453 C 209.644 65.371,209.102 65.304,207.778 65.304 C 206.454 65.304,205.912 65.371,206.574 65.453 M211.204 65.811 C 211.560 65.904,212.144 65.904,212.500 65.811 C 212.856 65.718,212.565 65.641,211.852 65.641 C 211.139 65.641,210.847 65.718,211.204 65.811 M242.222 66.975 C 242.528 67.163,243.194 67.429,243.704 67.565 C 244.347 67.738,244.460 67.708,244.074 67.470 C 243.769 67.281,243.102 67.015,242.593 66.879 C 241.949 66.707,241.836 66.736,242.222 66.975 M98.519 101.296 C 97.001 102.824,95.843 104.074,95.944 104.074 C 96.046 104.074,97.371 102.824,98.889 101.296 C 100.406 99.769,101.565 98.519,101.463 98.519 C 101.361 98.519,100.036 99.769,98.519 101.296 M102.587 104.722 L 98.333 109.074 102.685 104.821 C 106.727 100.870,107.205 100.370,106.938 100.370 C 106.884 100.370,104.926 102.329,102.587 104.722 M293.704 104.630 C 296.040 106.972,298.034 108.889,298.136 108.889 C 298.238 108.889,296.410 106.972,294.074 104.630 C 291.738 102.287,289.744 100.370,289.642 100.370 C 289.540 100.370,291.368 102.287,293.704 104.630 M300.741 104.560 C 300.741 104.624,301.282 105.166,301.944 105.764 L 303.148 106.852 302.060 105.648 C 301.046 104.526,300.741 104.274,300.741 104.560 M93.871 106.389 L 92.407 107.963 93.981 106.499 C 95.445 105.137,95.726 104.815,95.446 104.815 C 95.385 104.815,94.677 105.523,93.871 106.389 M210.185 132.963 C 211.752 133.362,213.097 133.362,211.852 132.963 C 211.343 132.800,210.509 132.670,210.000 132.673 C 209.168 132.680,209.187 132.709,210.185 132.963 M170.000 137.593 C 169.491 137.884,169.241 138.122,169.444 138.122 C 169.648 138.122,170.231 137.884,170.741 137.593 C 171.250 137.301,171.500 137.063,171.296 137.063 C 171.093 137.063,170.509 137.301,170.000 137.593 M245.926 151.667 C 247.853 153.602,249.513 155.185,249.615 155.185 C 249.717 155.185,248.223 153.602,246.296 151.667 C 244.369 149.731,242.709 148.148,242.607 148.148 C 242.505 148.148,243.999 149.731,245.926 151.667 M149.617 151.759 L 147.593 153.889 149.722 151.865 C 151.701 149.984,152.022 149.630,151.747 149.630 C 151.689 149.630,150.730 150.588,149.617 151.759 M253.332 160.278 C 253.817 160.940,254.271 161.481,254.342 161.481 C 254.623 161.481,253.705 160.092,253.098 159.599 C 252.697 159.274,252.787 159.533,253.332 160.278 M334.468 166.969 C 334.432 167.721,335.160 168.890,335.661 168.883 C 336.009 168.879,336.011 168.814,335.667 168.595 C 335.422 168.440,335.058 167.900,334.857 167.397 C 334.656 166.893,334.481 166.701,334.468 166.969 M61.481 168.086 C 61.481 168.324,61.106 168.538,60.648 168.561 C 59.962 168.597,59.936 168.636,60.502 168.781 C 61.241 168.972,62.152 168.325,61.735 167.907 C 61.595 167.768,61.481 167.849,61.481 168.086 M337.505 168.784 C 338.068 168.869,338.901 168.867,339.357 168.779 C 339.812 168.691,339.352 168.622,338.333 168.624 C 337.315 168.627,336.942 168.699,337.505 168.784 M345.556 170.124 C 345.556 170.220,346.093 170.485,346.751 170.715 C 347.408 170.944,347.783 170.979,347.584 170.792 C 347.162 170.398,345.556 169.868,345.556 170.124 M264.313 184.815 C 264.606 186.412,264.817 186.713,264.809 185.525 C 264.806 185.032,264.640 184.380,264.439 184.074 C 264.183 183.683,264.146 183.903,264.313 184.815 M130.456 190.741 C 130.456 191.454,130.533 191.745,130.626 191.389 C 130.719 191.032,130.719 190.449,130.626 190.093 C 130.533 189.736,130.456 190.028,130.456 190.741 M130.093 194.259 C 130.098 195.074,130.173 195.364,130.262 194.903 C 130.351 194.442,130.347 193.776,130.254 193.422 C 130.162 193.068,130.089 193.444,130.093 194.259 M266.074 199.815 C 266.075 202.870,266.132 204.071,266.202 202.483 C 266.271 200.895,266.271 198.395,266.201 196.928 C 266.130 195.460,266.074 196.759,266.074 199.815 M130.093 205.370 C 130.098 206.185,130.173 206.475,130.262 206.014 C 130.351 205.553,130.347 204.887,130.254 204.533 C 130.162 204.179,130.089 204.556,130.093 205.370 M94.306 206.343 C 93.997 207.886,94.296 208.186,94.630 206.667 C 94.770 206.026,94.808 205.425,94.714 205.331 C 94.619 205.237,94.436 205.692,94.306 206.343 M305.248 205.741 C 305.242 206.148,305.380 206.815,305.556 207.222 C 305.961 208.166,305.961 207.192,305.556 205.926 C 305.317 205.182,305.257 205.145,305.248 205.741 M33.709 207.623 C 33.712 208.014,33.884 208.583,34.091 208.889 C 34.366 209.295,34.400 209.145,34.218 208.333 C 33.914 206.972,33.702 206.676,33.709 207.623 M130.456 208.889 C 130.456 209.602,130.533 209.894,130.626 209.537 C 130.719 209.181,130.719 208.597,130.626 208.241 C 130.533 207.884,130.456 208.176,130.456 208.889 M264.487 214.136 C 264.464 214.476,264.349 215.060,264.231 215.433 C 264.029 216.076,264.040 216.077,264.441 215.451 C 264.674 215.088,264.789 214.505,264.698 214.155 C 264.547 213.582,264.526 213.580,264.487 214.136 M362.865 215.280 L 362.212 216.481 362.958 215.607 C 363.592 214.863,363.932 214.068,363.611 214.076 C 363.560 214.078,363.224 214.619,362.865 215.280 M131.904 216.296 C 131.904 216.602,132.047 217.185,132.222 217.593 C 132.423 218.059,132.541 218.128,132.541 217.778 C 132.541 217.472,132.397 216.889,132.222 216.481 C 132.022 216.015,131.904 215.946,131.904 216.296 M87.205 220.463 L 85.741 222.037 87.315 220.573 C 88.779 219.211,89.059 218.889,88.779 218.889 C 88.718 218.889,88.010 219.597,87.205 220.463 M313.704 221.667 C 315.016 222.991,316.173 224.074,316.275 224.074 C 316.377 224.074,315.386 222.991,314.074 221.667 C 312.762 220.343,311.605 219.259,311.503 219.259 C 311.401 219.259,312.391 220.343,313.704 221.667 M72.407 229.630 C 71.941 229.830,71.872 229.948,72.222 229.948 C 72.528 229.948,73.111 229.805,73.519 229.630 C 73.985 229.429,74.054 229.311,73.704 229.311 C 73.398 229.311,72.815 229.455,72.407 229.630 M326.481 229.630 C 326.889 229.805,327.472 229.948,327.778 229.948 C 328.128 229.948,328.059 229.830,327.593 229.630 C 327.185 229.455,326.602 229.311,326.296 229.311 C 325.946 229.311,326.015 229.429,326.481 229.630 M258.406 230.931 C 258.067 231.641,257.866 232.222,257.959 232.222 C 258.213 232.222,259.337 229.954,259.168 229.785 C 259.087 229.705,258.744 230.220,258.406 230.931 M335.062 230.988 C 334.926 231.123,334.817 231.415,334.820 231.636 C 334.824 231.892,334.927 231.878,335.105 231.598 C 335.259 231.356,336.215 231.095,337.229 231.016 L 339.074 230.874 337.191 230.807 C 336.156 230.771,335.198 230.852,335.062 230.988 M253.333 239.259 C 252.898 239.870,252.625 240.370,252.727 240.370 C 252.829 240.370,253.269 239.870,253.704 239.259 C 254.139 238.648,254.412 238.148,254.310 238.148 C 254.208 238.148,253.768 238.648,253.333 239.259 M246.102 247.870 L 243.148 250.926 246.204 247.972 C 249.042 245.228,249.428 244.815,249.158 244.815 C 249.102 244.815,247.727 246.190,246.102 247.870 M152.593 250.556 C 153.284 251.269,153.932 251.852,154.034 251.852 C 154.136 251.852,153.654 251.269,152.963 250.556 C 152.272 249.843,151.623 249.259,151.521 249.259 C 151.420 249.259,151.902 249.843,152.593 250.556 M162.222 257.745 C 162.731 258.161,163.315 258.503,163.519 258.505 C 163.915 258.507,163.245 257.994,162.037 257.370 C 161.545 257.116,161.607 257.242,162.222 257.745 M171.111 262.407 C 171.620 262.699,172.204 262.937,172.407 262.937 C 172.611 262.937,172.361 262.699,171.852 262.407 C 171.343 262.116,170.759 261.878,170.556 261.878 C 170.352 261.878,170.602 262.116,171.111 262.407 M220.556 263.902 C 219.625 264.350,219.595 264.401,220.370 264.214 C 220.880 264.091,221.455 263.843,221.648 263.662 C 222.128 263.214,221.865 263.271,220.556 263.902 M215.000 265.556 C 214.533 265.756,214.465 265.874,214.815 265.874 C 215.120 265.874,215.704 265.731,216.111 265.556 C 216.578 265.355,216.646 265.237,216.296 265.237 C 215.991 265.237,215.407 265.380,215.000 265.556 M188.241 267.292 C 188.597 267.386,189.181 267.386,189.537 267.292 C 189.894 267.199,189.602 267.123,188.889 267.123 C 188.176 267.123,187.884 267.199,188.241 267.292 M206.759 267.292 C 207.116 267.386,207.699 267.386,208.056 267.292 C 208.412 267.199,208.120 267.123,207.407 267.123 C 206.694 267.123,206.403 267.199,206.759 267.292 M191.574 267.663 C 191.931 267.756,192.514 267.756,192.870 267.663 C 193.227 267.570,192.935 267.493,192.222 267.493 C 191.509 267.493,191.218 267.570,191.574 267.663 M203.245 267.669 C 203.706 267.758,204.372 267.755,204.727 267.662 C 205.081 267.569,204.704 267.497,203.889 267.501 C 203.074 267.505,202.784 267.581,203.245 267.669 M299.792 288.981 L 298.704 290.185 299.907 289.097 C 300.569 288.499,301.111 287.957,301.111 287.894 C 301.111 287.608,300.806 287.859,299.792 288.981 M293.698 295.463 L 289.444 299.815 293.796 295.562 C 296.190 293.222,298.148 291.264,298.148 291.210 C 298.148 290.943,297.648 291.421,293.698 295.463 M93.704 293.519 C 94.395 294.231,95.043 294.815,95.145 294.815 C 95.247 294.815,94.765 294.231,94.074 293.519 C 93.383 292.806,92.734 292.222,92.632 292.222 C 92.531 292.222,93.013 292.806,93.704 293.519 M101.667 294.444 C 102.462 295.259,103.197 295.926,103.298 295.926 C 103.400 295.926,102.833 295.259,102.037 294.444 C 101.241 293.630,100.507 292.963,100.405 292.963 C 100.303 292.963,100.871 293.630,101.667 294.444 M99.074 299.259 C 100.284 300.481,101.356 301.481,101.458 301.481 C 101.560 301.481,100.654 300.481,99.444 299.259 C 98.235 298.037,97.162 297.037,97.060 297.037 C 96.958 297.037,97.865 298.037,99.074 299.259 M297.579 298.981 L 295.741 300.926 297.685 299.088 C 299.492 297.380,299.799 297.037,299.523 297.037 C 299.465 297.037,298.590 297.912,297.579 298.981 M150.741 326.420 C 150.741 326.516,151.279 326.782,151.936 327.011 C 152.593 327.240,152.968 327.275,152.769 327.089 C 152.348 326.694,150.741 326.164,150.741 326.420 M161.296 330.000 C 161.704 330.175,162.287 330.318,162.593 330.318 C 162.943 330.318,162.874 330.201,162.407 330.000 C 162.000 329.825,161.417 329.682,161.111 329.682 C 160.761 329.682,160.829 329.799,161.296 330.000 M234.259 330.000 C 233.792 330.201,233.724 330.318,234.074 330.318 C 234.380 330.318,234.963 330.175,235.370 330.000 C 235.837 329.799,235.906 329.682,235.556 329.682 C 235.250 329.682,234.667 329.825,234.259 330.000 M187.692 334.713 C 188.358 334.795,189.358 334.794,189.914 334.709 C 190.471 334.625,189.926 334.557,188.704 334.559 C 187.481 334.561,187.026 334.630,187.692 334.713 M206.951 334.713 C 207.617 334.795,208.617 334.794,209.173 334.709 C 209.730 334.625,209.185 334.557,207.963 334.559 C 206.741 334.561,206.285 334.630,206.951 334.713 M194.518 335.090 C 196.290 335.158,199.290 335.158,201.185 335.091 C 203.080 335.024,201.630 334.968,197.963 334.968 C 194.296 334.967,192.746 335.023,194.518 335.090 M163.519 335.926 C 163.926 336.101,164.509 336.244,164.815 336.244 C 165.165 336.244,165.097 336.127,164.630 335.926 C 164.222 335.751,163.639 335.608,163.333 335.608 C 162.983 335.608,163.052 335.725,163.519 335.926 M232.037 335.926 C 231.570 336.127,231.502 336.244,231.852 336.244 C 232.157 336.244,232.741 336.101,233.148 335.926 C 233.615 335.725,233.684 335.608,233.333 335.608 C 233.028 335.608,232.444 335.751,232.037 335.926 M180.093 339.144 C 180.449 339.237,181.032 339.237,181.389 339.144 C 181.745 339.051,181.454 338.975,180.741 338.975 C 180.028 338.975,179.736 339.051,180.093 339.144 M215.278 339.144 C 215.634 339.237,216.218 339.237,216.574 339.144 C 216.931 339.051,216.639 338.975,215.926 338.975 C 215.213 338.975,214.921 339.051,215.278 339.144 M183.056 339.515 C 183.412 339.608,183.995 339.608,184.352 339.515 C 184.708 339.421,184.417 339.345,183.704 339.345 C 182.991 339.345,182.699 339.421,183.056 339.515 " stroke="none" fill="#70738e" fill-rule="evenodd"></path><path id="path3" d="M297.222 101.111 C 299.047 102.944,300.623 104.444,300.725 104.444 C 300.827 104.444,299.417 102.944,297.593 101.111 C 295.768 99.278,294.191 97.778,294.090 97.778 C 293.988 97.778,295.397 99.278,297.222 101.111 M149.815 247.778 C 150.610 248.593,151.345 249.259,151.447 249.259 C 151.548 249.259,150.981 248.593,150.185 247.778 C 149.390 246.963,148.655 246.296,148.553 246.296 C 148.452 246.296,149.019 246.963,149.815 247.778 M204.907 335.070 C 205.264 335.163,205.847 335.163,206.204 335.070 C 206.560 334.977,206.269 334.901,205.556 334.901 C 204.843 334.901,204.551 334.977,204.907 335.070 " stroke="none" fill="#8c94a4" fill-rule="evenodd"></path><path id="path4" d="M186.389 60.626 C 186.745 60.719,187.329 60.719,187.685 60.626 C 188.042 60.533,187.750 60.456,187.037 60.456 C 186.324 60.456,186.032 60.533,186.389 60.626 M98.878 101.389 L 96.481 103.889 98.981 101.492 C 100.356 100.174,101.481 99.049,101.481 98.992 C 101.481 98.720,101.104 99.067,98.878 101.389 M102.396 104.537 L 100.185 106.852 102.500 104.641 C 104.650 102.588,104.984 102.222,104.711 102.222 C 104.653 102.222,103.612 103.264,102.396 104.537 M294.074 104.630 C 295.181 105.750,296.169 106.667,296.271 106.667 C 296.373 106.667,295.551 105.750,294.444 104.630 C 293.338 103.509,292.349 102.593,292.248 102.593 C 292.146 102.593,292.968 103.509,294.074 104.630 M193.426 132.107 C 193.782 132.200,194.366 132.200,194.722 132.107 C 195.079 132.014,194.787 131.938,194.074 131.938 C 193.361 131.938,193.069 132.014,193.426 132.107 M201.574 132.107 C 201.931 132.200,202.514 132.200,202.870 132.107 C 203.227 132.014,202.935 131.938,202.222 131.938 C 201.509 131.938,201.218 132.014,201.574 132.107 M189.722 132.478 C 190.079 132.571,190.662 132.571,191.019 132.478 C 191.375 132.384,191.083 132.308,190.370 132.308 C 189.657 132.308,189.366 132.384,189.722 132.478 M204.907 132.478 C 205.264 132.571,205.847 132.571,206.204 132.478 C 206.560 132.384,206.269 132.308,205.556 132.308 C 204.843 132.308,204.551 132.384,204.907 132.478 M171.481 137.222 C 170.972 137.513,170.722 137.752,170.926 137.752 C 171.130 137.752,171.713 137.513,172.222 137.222 C 172.731 136.931,172.981 136.693,172.778 136.693 C 172.574 136.693,171.991 136.931,171.481 137.222 M243.148 149.259 C 243.944 150.074,244.678 150.741,244.780 150.741 C 244.882 150.741,244.314 150.074,243.519 149.259 C 242.723 148.444,241.989 147.778,241.887 147.778 C 241.785 147.778,242.353 148.444,243.148 149.259 M150.000 151.667 C 149.100 152.583,148.448 153.333,148.549 153.333 C 148.651 153.333,149.471 152.583,150.370 151.667 C 151.270 150.750,151.923 150.000,151.821 150.000 C 151.719 150.000,150.900 150.750,150.000 151.667 M248.333 154.444 C 249.129 155.259,249.863 155.926,249.965 155.926 C 250.067 155.926,249.499 155.259,248.704 154.444 C 247.908 153.630,247.174 152.963,247.072 152.963 C 246.970 152.963,247.538 153.630,248.333 154.444 M357.778 177.963 C 358.469 178.676,359.118 179.259,359.219 179.259 C 359.321 179.259,358.839 178.676,358.148 177.963 C 357.457 177.250,356.808 176.667,356.707 176.667 C 356.605 176.667,357.087 177.250,357.778 177.963 M41.643 178.241 L 40.556 179.444 41.759 178.357 C 42.421 177.758,42.963 177.217,42.963 177.153 C 42.963 176.867,42.657 177.119,41.643 178.241 M308.333 185.556 C 308.017 186.167,307.842 186.667,307.944 186.667 C 308.046 186.667,308.388 186.167,308.704 185.556 C 309.020 184.944,309.195 184.444,309.093 184.444 C 308.991 184.444,308.649 184.944,308.333 185.556 M130.456 193.333 C 130.456 194.046,130.533 194.338,130.626 193.981 C 130.719 193.625,130.719 193.042,130.626 192.685 C 130.533 192.329,130.456 192.620,130.456 193.333 M130.135 199.815 C 130.136 201.852,130.198 202.638,130.273 201.562 C 130.349 200.485,130.348 198.819,130.272 197.858 C 130.196 196.897,130.134 197.778,130.135 199.815 M94.946 199.815 C 94.945 201.648,95.008 202.445,95.085 201.585 C 95.163 200.726,95.164 199.226,95.088 198.252 C 95.011 197.278,94.947 197.981,94.946 199.815 M304.939 200.000 C 304.939 201.528,305.005 202.153,305.085 201.389 C 305.165 200.625,305.165 199.375,305.085 198.611 C 305.005 197.847,304.939 198.472,304.939 200.000 M265.641 204.815 C 265.641 205.528,265.718 205.819,265.811 205.463 C 265.904 205.106,265.904 204.523,265.811 204.167 C 265.718 203.810,265.641 204.102,265.641 204.815 M130.464 205.741 C 130.468 206.556,130.544 206.845,130.632 206.385 C 130.721 205.924,130.718 205.257,130.625 204.903 C 130.532 204.549,130.460 204.926,130.464 205.741 M131.534 213.704 C 131.534 214.009,131.677 214.593,131.852 215.000 C 132.052 215.467,132.170 215.535,132.170 215.185 C 132.170 214.880,132.027 214.296,131.852 213.889 C 131.651 213.422,131.534 213.354,131.534 213.704 M146.667 244.259 C 147.358 244.972,148.006 245.556,148.108 245.556 C 148.210 245.556,147.728 244.972,147.037 244.259 C 146.346 243.546,145.697 242.963,145.595 242.963 C 145.494 242.963,145.976 243.546,146.667 244.259 M245.918 247.685 L 242.778 250.926 246.019 247.786 C 249.028 244.870,249.428 244.444,249.158 244.444 C 249.103 244.444,247.645 245.903,245.918 247.685 M191.204 267.292 C 191.560 267.386,192.144 267.386,192.500 267.292 C 192.856 267.199,192.565 267.123,191.852 267.123 C 191.139 267.123,190.847 267.199,191.204 267.292 M203.986 267.299 C 204.447 267.388,205.113 267.384,205.467 267.292 C 205.821 267.199,205.444 267.126,204.630 267.130 C 203.815 267.135,203.525 267.210,203.986 267.299 M196.019 267.681 C 197.190 267.755,199.106 267.755,200.278 267.681 C 201.449 267.608,200.491 267.547,198.148 267.547 C 195.806 267.547,194.847 267.608,196.019 267.681 M293.333 296.111 C 291.816 297.639,290.657 298.889,290.759 298.889 C 290.861 298.889,292.186 297.639,293.704 296.111 C 295.221 294.583,296.380 293.333,296.278 293.333 C 296.176 293.333,294.851 294.583,293.333 296.111 M104.444 297.593 C 105.135 298.306,105.784 298.889,105.886 298.889 C 105.988 298.889,105.506 298.306,104.815 297.593 C 104.124 296.880,103.475 296.296,103.373 296.296 C 103.271 296.296,103.753 296.880,104.444 297.593 M99.074 298.889 C 100.284 300.111,101.356 301.111,101.458 301.111 C 101.560 301.111,100.654 300.111,99.444 298.889 C 98.235 297.667,97.162 296.667,97.060 296.667 C 96.958 296.667,97.865 297.667,99.074 298.889 M297.024 299.167 L 295.000 301.296 297.130 299.272 C 299.108 297.391,299.429 297.037,299.154 297.037 C 299.096 297.037,298.138 297.995,297.024 299.167 M186.019 339.515 C 186.375 339.608,186.958 339.608,187.315 339.515 C 187.671 339.421,187.380 339.345,186.667 339.345 C 185.954 339.345,185.662 339.421,186.019 339.515 M209.352 339.515 C 209.708 339.608,210.292 339.608,210.648 339.515 C 211.005 339.421,210.713 339.345,210.000 339.345 C 209.287 339.345,208.995 339.421,209.352 339.515 " stroke="none" fill="#948cb4" fill-rule="evenodd"></path></g></svg>